<mxfile host="65bd71144e" scale="1" border="10">
    <diagram name="Investment Research Architecture" id="investment-architecture">
        <mxGraphModel dx="1768" dy="1126" grid="1" gridSize="10" guides="1" tooltips="1" connect="1" arrows="1" fold="1" page="1" pageScale="1" pageWidth="1654" pageHeight="1169" background="#FFFFFF" math="0" shadow="0">
            <root>
                <mxCell id="0"/>
                <mxCell id="1" parent="0"/>
                <mxCell id="title" value="Investment Research Agent - System Architecture" style="text;html=1;strokeColor=none;fillColor=none;align=center;verticalAlign=middle;whiteSpace=wrap;rounded=0;fontSize=24;fontStyle=1;" parent="1" vertex="1">
                    <mxGeometry x="200" y="20" width="1200" height="40" as="geometry"/>
                </mxCell>
                <mxCell id="ui-layer" value="USER INTERFACE LAYER" style="rounded=1;whiteSpace=wrap;html=1;fontSize=16;fontStyle=1;fillColor=#f8cecc;strokeColor=#b85450;strokeWidth=2;" parent="1" vertex="1">
                    <mxGeometry x="100" y="80" width="1400" height="40" as="geometry"/>
                </mxCell>
                <mxCell id="gradio-interface" value="Gradio Web Interface&lt;br&gt;&lt;br&gt;• Real-time Chat Interface&lt;br&gt;• Investment Analysis Forms&lt;br&gt;• Interactive Visualizations&lt;br&gt;• Multi-format Export" style="rounded=1;whiteSpace=wrap;html=1;fillColor=#fff2cc;strokeColor=#d6b656;fontSize=12;align=left;verticalAlign=top;" parent="1" vertex="1">
                    <mxGeometry x="150" y="140" width="200" height="120" as="geometry"/>
                </mxCell>
                <mxCell id="api-gateway" value="API Gateway&lt;br&gt;&lt;br&gt;• Request Routing&lt;br&gt;• Authentication&lt;br&gt;• Rate Limiting&lt;br&gt;• Error Handling" style="rounded=1;whiteSpace=wrap;html=1;fillColor=#fff2cc;strokeColor=#d6b656;fontSize=12;align=left;verticalAlign=top;" parent="1" vertex="1">
                    <mxGeometry x="400" y="140" width="200" height="120" as="geometry"/>
                </mxCell>
                <mxCell id="mobile-interface" value="Mobile Interface&lt;br&gt;&lt;br&gt;• Responsive Design&lt;br&gt;• Touch Interactions&lt;br&gt;• Push Notifications&lt;br&gt;• Offline Capability" style="rounded=1;whiteSpace=wrap;html=1;fillColor=#fff2cc;strokeColor=#d6b656;fontSize=12;align=left;verticalAlign=top;" parent="1" vertex="1">
                    <mxGeometry x="650" y="140" width="200" height="120" as="geometry"/>
                </mxCell>
                <mxCell id="business-layer" value="BUSINESS LOGIC LAYER" style="rounded=1;whiteSpace=wrap;html=1;fontSize=16;fontStyle=1;fillColor=#dae8fc;strokeColor=#6c8ebf;strokeWidth=2;" parent="1" vertex="1">
                    <mxGeometry x="100" y="300" width="1400" height="40" as="geometry"/>
                </mxCell>
                <mxCell id="main-coordinator" value="Main Coordinator&lt;br&gt;&lt;br&gt;• Workflow Orchestration&lt;br&gt;• Agent Management&lt;br&gt;• Quality Control&lt;br&gt;• Self-Reflection&lt;br&gt;• Error Handling" style="rounded=1;whiteSpace=wrap;html=1;fillColor=#e1d5e7;strokeColor=#9673a6;fontSize=12;align=left;verticalAlign=top;" parent="1" vertex="1">
                    <mxGeometry x="150" y="360" width="200" height="140" as="geometry"/>
                </mxCell>
                <mxCell id="routing-coordinator" value="Routing Coordinator&lt;br&gt;&lt;br&gt;• Agent Selection&lt;br&gt;• Task Distribution&lt;br&gt;• Load Balancing&lt;br&gt;• Dependency Management&lt;br&gt;• Parallel Execution" style="rounded=1;whiteSpace=wrap;html=1;fillColor=#e1d5e7;strokeColor=#9673a6;fontSize=12;align=left;verticalAlign=top;" parent="1" vertex="1">
                    <mxGeometry x="400" y="360" width="200" height="140" as="geometry"/>
                </mxCell>
                <mxCell id="evaluator-optimizer" value="Evaluator-Optimizer&lt;br&gt;&lt;br&gt;• Quality Assessment&lt;br&gt;• Analysis Refinement&lt;br&gt;• Performance Metrics&lt;br&gt;• Continuous Improvement&lt;br&gt;• Feedback Loop" style="rounded=1;whiteSpace=wrap;html=1;fillColor=#e1d5e7;strokeColor=#9673a6;fontSize=12;align=left;verticalAlign=top;" parent="1" vertex="1">
                    <mxGeometry x="650" y="360" width="200" height="140" as="geometry"/>
                </mxCell>
                <mxCell id="summarizer-agent" value="Summarizer Agent&lt;br&gt;&lt;br&gt;• Report Generation&lt;br&gt;• Executive Summary&lt;br&gt;• Key Insights&lt;br&gt;• Recommendation Synthesis&lt;br&gt;• Visual Charts" style="rounded=1;whiteSpace=wrap;html=1;fillColor=#e1d5e7;strokeColor=#9673a6;fontSize=12;align=left;verticalAlign=top;" parent="1" vertex="1">
                    <mxGeometry x="900" y="360" width="200" height="140" as="geometry"/>
                </mxCell>
                <mxCell id="agents-layer" value="SPECIALIST AGENTS LAYER" style="rounded=1;whiteSpace=wrap;html=1;fontSize=16;fontStyle=1;fillColor=#d5e8d4;strokeColor=#82b366;strokeWidth=2;" parent="1" vertex="1">
                    <mxGeometry x="100" y="540" width="1400" height="40" as="geometry"/>
                </mxCell>
                <mxCell id="technical-analyst" value="Technical Analyst&lt;br&gt;&lt;br&gt;• Price Pattern Analysis&lt;br&gt;• Technical Indicators&lt;br&gt;• Chart Analysis&lt;br&gt;• Trend Identification&lt;br&gt;• Support/Resistance" style="rounded=1;whiteSpace=wrap;html=1;fillColor=#d5e8d4;strokeColor=#82b366;fontSize=12;align=left;verticalAlign=top;" parent="1" vertex="1">
                    <mxGeometry x="120" y="600" width="160" height="120" as="geometry"/>
                </mxCell>
                <mxCell id="fundamental-analyst" value="Fundamental Analyst&lt;br&gt;&lt;br&gt;• Financial Metrics&lt;br&gt;• Valuation Models&lt;br&gt;• Company Analysis&lt;br&gt;• Industry Comparison&lt;br&gt;• Growth Projections" style="rounded=1;whiteSpace=wrap;html=1;fillColor=#d5e8d4;strokeColor=#82b366;fontSize=12;align=left;verticalAlign=top;" parent="1" vertex="1">
                    <mxGeometry x="300" y="600" width="160" height="120" as="geometry"/>
                </mxCell>
                <mxCell id="news-analyst" value="News Analyst&lt;br&gt;&lt;br&gt;• Sentiment Analysis&lt;br&gt;• News Classification&lt;br&gt;• Event Impact&lt;br&gt;• Market Reaction&lt;br&gt;• Social Media Trends" style="rounded=1;whiteSpace=wrap;html=1;fillColor=#d5e8d4;strokeColor=#82b366;fontSize=12;align=left;verticalAlign=top;" parent="1" vertex="1">
                    <mxGeometry x="480" y="600" width="160" height="120" as="geometry"/>
                </mxCell>
                <mxCell id="sec-analyst" value="SEC Filings Analyst&lt;br&gt;&lt;br&gt;• Form 10-K Analysis&lt;br&gt;• Regulatory Compliance&lt;br&gt;• Risk Assessment&lt;br&gt;• Management Changes&lt;br&gt;• Legal Issues" style="rounded=1;whiteSpace=wrap;html=1;fillColor=#d5e8d4;strokeColor=#82b366;fontSize=12;align=left;verticalAlign=top;" parent="1" vertex="1">
                    <mxGeometry x="660" y="600" width="160" height="120" as="geometry"/>
                </mxCell>
                <mxCell id="recommendation-agent" value="Recommendation Agent&lt;br&gt;&lt;br&gt;• Investment Decision&lt;br&gt;• Risk Assessment&lt;br&gt;• Portfolio Impact&lt;br&gt;• Buy/Sell/Hold&lt;br&gt;• Price Targets" style="rounded=1;whiteSpace=wrap;html=1;fillColor=#d5e8d4;strokeColor=#82b366;fontSize=12;align=left;verticalAlign=top;" parent="1" vertex="1">
                    <mxGeometry x="840" y="600" width="160" height="120" as="geometry"/>
                </mxCell>
                <mxCell id="data-layer" value="DATA PROCESSING LAYER" style="rounded=1;whiteSpace=wrap;html=1;fontSize=16;fontStyle=1;fillColor=#fad9d5;strokeColor=#ae4132;strokeWidth=2;" parent="1" vertex="1">
                    <mxGeometry x="100" y="760" width="1400" height="40" as="geometry"/>
                </mxCell>
                <mxCell id="data-connectors" value="Data Connectors&lt;br&gt;&lt;br&gt;• Yahoo Finance API&lt;br&gt;• NewsAPI Integration&lt;br&gt;• Alpha Vantage API&lt;br&gt;• FRED Economic Data&lt;br&gt;• SEC EDGAR API" style="rounded=1;whiteSpace=wrap;html=1;fillColor=#fad9d5;strokeColor=#ae4132;fontSize=12;align=left;verticalAlign=top;" parent="1" vertex="1">
                    <mxGeometry x="150" y="820" width="200" height="120" as="geometry"/>
                </mxCell>
                <mxCell id="data-validation" value="Data Validation&lt;br&gt;&lt;br&gt;• Quality Checks&lt;br&gt;• Format Validation&lt;br&gt;• Anomaly Detection&lt;br&gt;• Completeness Tests&lt;br&gt;• Consistency Checks" style="rounded=1;whiteSpace=wrap;html=1;fillColor=#fad9d5;strokeColor=#ae4132;fontSize=12;align=left;verticalAlign=top;" parent="1" vertex="1">
                    <mxGeometry x="400" y="820" width="200" height="120" as="geometry"/>
                </mxCell>
                <mxCell id="data-transformation" value="Data Transformation&lt;br&gt;&lt;br&gt;• ETL Processes&lt;br&gt;• Data Normalization&lt;br&gt;• Feature Engineering&lt;br&gt;• Aggregation Logic&lt;br&gt;• Format Conversion" style="rounded=1;whiteSpace=wrap;html=1;fillColor=#fad9d5;strokeColor=#ae4132;fontSize=12;align=left;verticalAlign=top;" parent="1" vertex="1">
                    <mxGeometry x="650" y="820" width="200" height="120" as="geometry"/>
                </mxCell>
                <mxCell id="infrastructure-layer" value="INFRASTRUCTURE LAYER" style="rounded=1;whiteSpace=wrap;html=1;fontSize=16;fontStyle=1;fillColor=#f0f0f0;strokeColor=#666666;strokeWidth=2;" parent="1" vertex="1">
                    <mxGeometry x="100" y="980" width="1400" height="40" as="geometry"/>
                </mxCell>
                <mxCell id="memory-system" value="Memory System&lt;br&gt;(FAISS Vector DB)&lt;br&gt;&lt;br&gt;• Vector Storage&lt;br&gt;• Similarity Search&lt;br&gt;• Embeddings Cache&lt;br&gt;• Experience Storage" style="rounded=1;whiteSpace=wrap;html=1;fillColor=#d0cee2;strokeColor=#56517e;fontSize=12;align=left;verticalAlign=top;" parent="1" vertex="1">
                    <mxGeometry x="150" y="1040" width="200" height="120" as="geometry"/>
                </mxCell>
                <mxCell id="azure-openai" value="Azure OpenAI&lt;br&gt;&lt;br&gt;• GPT-4 Language Model&lt;br&gt;• Text Embeddings&lt;br&gt;• Completion API&lt;br&gt;• Chat API&lt;br&gt;• Token Management" style="rounded=1;whiteSpace=wrap;html=1;fillColor=#f0f0f0;strokeColor=#666666;fontSize=12;align=left;verticalAlign=top;" parent="1" vertex="1">
                    <mxGeometry x="400" y="1040" width="200" height="120" as="geometry"/>
                </mxCell>
                <mxCell id="configuration" value="Configuration&lt;br&gt;Management&lt;br&gt;&lt;br&gt;• Environment Variables&lt;br&gt;• API Keys&lt;br&gt;• Model Parameters&lt;br&gt;• System Settings" style="rounded=1;whiteSpace=wrap;html=1;fillColor=#f0f0f0;strokeColor=#666666;fontSize=12;align=left;verticalAlign=top;" parent="1" vertex="1">
                    <mxGeometry x="650" y="1040" width="200" height="120" as="geometry"/>
                </mxCell>
                <mxCell id="workflow-patterns" value="&lt;span style=&quot;white-space: pre;&quot;&gt;&#x9;&lt;/span&gt;KEY WORKFLOW PATTERNS&lt;br&gt;&lt;br&gt;&lt;span style=&quot;white-space: pre;&quot;&gt;&#x9;&lt;/span&gt;1. PROMPT CHAINING&lt;br&gt;   &lt;span style=&quot;white-space: pre;&quot;&gt;&#x9;&lt;span style=&quot;white-space: pre;&quot;&gt;&#x9;&lt;/span&gt;&lt;/span&gt;News Processing Chain&lt;br&gt;&lt;br&gt;&lt;span style=&quot;white-space: pre;&quot;&gt;&#x9;&lt;/span&gt;2. ROUTING&lt;br&gt;   &lt;span style=&quot;white-space: pre;&quot;&gt;&#x9;&lt;/span&gt;&lt;span style=&quot;white-space: pre;&quot;&gt;&#x9;&lt;/span&gt;Agent Selection&lt;br&gt;&lt;br&gt;&lt;span style=&quot;white-space: pre;&quot;&gt;&#x9;&lt;/span&gt;3. EVALUATOR-OPTIMIZER&lt;br&gt;   &lt;span style=&quot;white-space: pre;&quot;&gt;&#x9;&lt;/span&gt;&lt;span style=&quot;white-space: pre;&quot;&gt;&#x9;&lt;/span&gt;Quality Control&lt;br&gt;&lt;br&gt;&lt;span style=&quot;white-space: pre;&quot;&gt;&#x9;&lt;/span&gt;4. MEMORY AND CACHING&lt;br&gt;   &lt;span style=&quot;white-space: pre;&quot;&gt;&#x9;&lt;/span&gt;&lt;span style=&quot;white-space: pre;&quot;&gt;&#x9;&lt;/span&gt;Performance Optimization" style="rounded=1;whiteSpace=wrap;html=1;fillColor=#e1f5fe;strokeColor=#01579b;fontSize=11;align=left;verticalAlign=top;" parent="1" vertex="1">
                    <mxGeometry x="1110" y="110" width="230" height="190" as="geometry"/>
                </mxCell>
                <mxCell id="conn1" value="" style="html=1;verticalAlign=bottom;endArrow=block;strokeColor=#666666;strokeWidth=2;" parent="1" edge="1">
                    <mxGeometry relative="1" as="geometry">
                        <mxPoint x="250" y="260" as="sourcePoint"/>
                        <mxPoint x="250" y="360" as="targetPoint"/>
                    </mxGeometry>
                </mxCell>
                <mxCell id="conn2" value="" style="html=1;verticalAlign=bottom;endArrow=block;strokeColor=#666666;strokeWidth=2;" parent="1" edge="1">
                    <mxGeometry relative="1" as="geometry">
                        <mxPoint x="500" y="500" as="sourcePoint"/>
                        <mxPoint x="500" y="600" as="targetPoint"/>
                    </mxGeometry>
                </mxCell>
                <mxCell id="conn3" value="" style="html=1;verticalAlign=bottom;endArrow=block;strokeColor=#666666;strokeWidth=2;" parent="1" edge="1">
                    <mxGeometry relative="1" as="geometry">
                        <mxPoint x="640" y="720" as="sourcePoint"/>
                        <mxPoint x="640" y="820" as="targetPoint"/>
                    </mxGeometry>
                </mxCell>
                <mxCell id="conn4" value="" style="html=1;verticalAlign=bottom;endArrow=block;strokeColor=#666666;strokeWidth=2;" parent="1" edge="1">
                    <mxGeometry relative="1" as="geometry">
                        <mxPoint x="500" y="940" as="sourcePoint"/>
                        <mxPoint x="500" y="1040" as="targetPoint"/>
                    </mxGeometry>
                </mxCell>
            </root>
        </mxGraphModel>
    </diagram>
</mxfile>